<?xml version="1.0" encoding="utf-8"?>
<!-- Generator: Adobe Illustrator 21.1.0, SVG Export Plug-In . SVG Version: 6.00 Build 0)  -->
<svg version="1.1" id="圖層_1" xmlns="http://www.w3.org/2000/svg" xmlns:xlink="http://www.w3.org/1999/xlink" x="0px" y="0px"
	 viewBox="0 0 100 30" style="enable-background:new 0 0 100 30;" xml:space="preserve">
<style type="text/css">
	.st0{fill:#0F283A;}
</style>
<g>
	<path class="st0" d="M27,9.7h-3.6c-0.5,0.7-1.1,1.3-1.6,1.8l-1-0.7c1-0.9,1.8-2,2.4-3.2L24.4,8c-0.1,0.1-0.2,0.3-0.3,0.6H27V9.7z
		 M33.5,14.4l-0.6,1.1c-0.6-0.2-1.4-0.5-2.6-1v0.6h-6.3v-0.6c-0.8,0.4-1.6,0.7-2.6,0.9l-0.7-1.1c3-0.8,5-1.9,6.2-3.3l1.2,0.4
		c-0.1,0.1-0.1,0.2-0.2,0.3C29.3,12.8,31.1,13.7,33.5,14.4z M31.9,20.3h-1.2v-0.5h-6.9v0.5h-1.3V16h9.5V20.3z M25.8,11.3l-1.2,0.5
		c-0.2-0.5-0.5-1-0.8-1.5L25,9.9C25.3,10.4,25.6,10.9,25.8,11.3z M30.7,18.6v-1.5h-6.9v1.5H30.7z M29.3,14c-0.8-0.4-1.5-0.9-2.1-1.5
		c-0.8,0.7-1.4,1.2-2,1.5H29.3z M33.4,9.7H29c-0.4,0.6-0.8,1-1.1,1.4l-1.1-0.7c0.9-0.9,1.5-1.9,2-2.9L30,7.9
		c-0.1,0.2-0.2,0.4-0.3,0.7h3.7V9.7z M31.8,11.3l-1.2,0.5c-0.2-0.5-0.5-1-0.9-1.5l1.2-0.4C31.3,10.4,31.6,10.9,31.8,11.3z"/>
	<path class="st0" d="M46.6,19.1c-2.1,0.4-4.4,0.7-6.9,1L39.5,19c1.7-0.2,2.7-0.3,3.1-0.4v-1.4H40v-1.1h2.5v-1.2h-2.8v-1.1h1.5
		c-0.1-0.5-0.3-1.1-0.6-1.7h-1.1V11h2V7.7h1.1V11h0.8V7.7h1.1V11h1.8v1.1h-0.9c-0.1,0.5-0.4,1-0.7,1.7h1.5v1.1h-2.5v1.2H46v1.1h-2.2
		v1.2c0.8-0.1,1.8-0.2,2.8-0.4L46.6,19.1z M41.2,10.3l-1,0.4c-0.1-0.8-0.3-1.5-0.7-2.3l1-0.4C40.9,8.7,41.1,9.5,41.2,10.3z
		 M44.2,12.1h-2.2c0.3,0.8,0.4,1.4,0.5,1.7h1C43.8,13.2,44,12.6,44.2,12.1z M46.8,8.4c-0.1,0.6-0.4,1.4-0.8,2.3l-1-0.5
		c0.4-0.9,0.7-1.6,0.8-2.2L46.8,8.4z M49.1,16.3L48,16.8c-0.3-1-0.7-2.1-1.3-3.4l1.1-0.5C48.5,14.3,48.9,15.4,49.1,16.3z M52,11.9
		H51V19c0,0.4-0.1,0.6-0.2,0.8s-0.4,0.3-0.6,0.4c-0.2,0.1-0.6,0.1-1.2,0.1c-0.3,0-0.7,0-1.1,0L47.4,19c0.4,0,0.8,0,1.1,0
		c0.6,0,0.9,0,1-0.1c0.1,0,0.1-0.1,0.1-0.2v-6.9h-2.8v-1.2h2.8V7.7H51v2.9H52V11.9z"/>
	<path class="st0" d="M70.1,9.4c-1.5,1.4-3.2,2.6-4.9,3.7v5.9c0,0.3-0.1,0.6-0.3,0.8c-0.2,0.2-0.4,0.3-0.7,0.4
		c-0.3,0.1-0.7,0.1-1.4,0.1c-0.3,0-0.7,0-1,0l-0.5-1.4c1.3,0,2,0,2.3,0c0.2,0,0.4-0.1,0.4-0.3v-6.1c1.7-1,3-2.1,4.1-3h-9.2V8.1h11.3
		V9.4z"/>
	<path class="st0" d="M77.2,18.7c0-0.3,0.1-0.5,0.3-0.7c0.2-0.2,0.4-0.3,0.7-0.3c0.3,0,0.5,0.1,0.7,0.3c0.2,0.2,0.3,0.4,0.3,0.7
		c0,0.3-0.1,0.5-0.3,0.7s-0.4,0.3-0.7,0.3c-0.3,0-0.6-0.1-0.8-0.3C77.3,19.2,77.2,19,77.2,18.7z M79.1,8.7l-0.2,7.7h-1.3l-0.2-7.7
		H79.1z"/>
</g>
</svg>
