<svg id="圖層_1" data-name="圖層 1" xmlns="http://www.w3.org/2000/svg" viewBox="0 0 100 30"><defs><style>.cls-1,.cls-2{fill:#0f283a;}.cls-2{font-size:14px;font-family:MicrosoftJhengHeiBold, Microsoft JhengHei;font-weight:700;}</style></defs><title>incorrect</title><path class="cls-1" d="M27,9.74H23.34a12.32,12.32,0,0,1-1.61,1.81l-1-.74a11.06,11.06,0,0,0,2.41-3.16L24.35,8q-.08.18-.3.57H27Zm6.53,4.64-.6,1.14a23.13,23.13,0,0,1-2.59-1v.63H24.05v-.62a14.39,14.39,0,0,1-2.63.93l-.69-1.11q4.47-1.13,6.17-3.33l1.22.44a2.55,2.55,0,0,1-.22.26A16.76,16.76,0,0,0,33.51,14.38ZM31.9,20.25H30.66v-.47H23.75v.47H22.44V16H31.9Zm-6.14-8.92-1.21.47a6.79,6.79,0,0,0-.81-1.47L25,9.9A6.59,6.59,0,0,1,25.76,11.33Zm4.89,7.31V17.15H23.75v1.48ZM29.26,14a10.46,10.46,0,0,1-2.12-1.45,10.6,10.6,0,0,1-2,1.45Zm4.12-4.28H29a9.56,9.56,0,0,1-1.14,1.41l-1.09-.67a11,11,0,0,0,2-2.94l1.21.4a5.78,5.78,0,0,1-.34.67h3.72Zm-1.61,1.58-1.18.48a9.14,9.14,0,0,0-.9-1.51l1.22-.39A6.22,6.22,0,0,1,31.78,11.33Z"/><path class="cls-1" d="M70.1,9.37a37.29,37.29,0,0,1-4.85,3.72v5.86a1.15,1.15,0,0,1-.28.8,1.25,1.25,0,0,1-.68.4,8,8,0,0,1-1.42.08l-1,0-.55-1.39q1.89,0,2.25,0t.36-.27V12.4a29.9,29.9,0,0,0,4.11-3H58.77V8.07H70.1Z"/><path class="cls-1" d="M77.19,18.71a.93.93,0,0,1,.3-.71A1.09,1.09,0,0,1,79,18a.93.93,0,0,1,.3.71.92.92,0,0,1-.3.69,1,1,0,0,1-.7.28,1.07,1.07,0,0,1-.77-.29A.92.92,0,0,1,77.19,18.71Zm1.89-10-.2,7.69H77.55l-.19-7.69Z"/><text class="cls-2" transform="translate(38.67 19.68)">錯</text></svg>